<?xml version="1.0" standalone="no"?><!DOCTYPE svg PUBLIC "-//W3C//DTD SVG 1.1//EN" "http://www.w3.org/Graphics/SVG/1.1/DTD/svg11.dtd"><svg t="1546480256276" class="icon" style="" viewBox="0 0 1024 1024" version="1.1" xmlns="http://www.w3.org/2000/svg" p-id="4796" xmlns:xlink="http://www.w3.org/1999/xlink" width="200" height="200"><defs><style type="text/css"></style></defs><path d="M304.09697 0c62.060606 77.575758 121.018182 155.151515 183.078788 229.624242-27.927273 6.206061-52.751515 31.030303-55.854546 58.957576l-223.418182-186.181818C232.727273 68.266667 266.860606 31.030303 304.09697 0zM201.69697 515.10303l226.521212-186.181818c6.206061 31.030303 27.927273 49.648485 58.957576 58.957576-62.060606 77.575758-121.018182 155.151515-183.078788 232.727273C266.860606 586.472727 232.727273 552.339394 201.69697 515.10303zM701.284848 620.606061l-183.078787-232.727273c27.927273-6.206061 52.751515-31.030303 58.957575-58.957576l226.521212 186.181818c-31.030303 37.236364-65.163636 71.369697-102.4 105.503031z m-124.121212-328.921213c-6.206061-31.030303-27.927273-52.751515-55.854545-58.957575L704.387879 0c37.236364 31.030303 68.266667 68.266667 102.4 105.50303l-229.624243 186.181818z" fill="#006eff" p-id="4797"></path><path d="M502.690909 251.345455c27.927273 0 52.751515 24.824242 52.751515 55.854545s-24.824242 55.854545-52.751515 55.854545C474.763636 363.054545 449.939394 341.333333 449.939394 310.30303c-3.10303-34.133333 21.721212-58.957576 52.751515-58.957575z" fill="#006eff" p-id="4798"></path><path d="M502.690909 425.115152C437.527273 425.115152 387.878788 372.363636 387.878788 310.30303c0-65.163636 52.751515-121.018182 114.812121-121.018182 65.163636 0 114.812121 52.751515 114.812121 117.915152s-52.751515 117.915152-114.812121 117.915152z m0-173.769697c-31.030303 0-52.751515 24.824242-52.751515 58.957575 0 27.927273 24.824242 52.751515 52.751515 52.751515 27.927273 0 52.751515-24.824242 52.751515-55.854545s-24.824242-55.854545-52.751515-55.854545z" fill="#006eff" p-id="4799"></path></svg>